<svg width="473" height="499" viewBox="0 0 473 499" fill="none" xmlns="http://www.w3.org/2000/svg">
<rect width="473" height="499" fill="#1E1E1E"/>
<rect width="472.673" height="498.223" fill="white"/>
<circle cx="236.337" cy="249.112" r="165.75" stroke="#181735" stroke-width="1.5"/>
<path d="M402.087 249.112C402.087 270.891 383.805 290.825 353.744 305.359C323.736 319.867 282.227 328.862 236.337 328.862C190.447 328.862 148.938 319.867 118.93 305.359C88.8693 290.825 70.5869 270.891 70.5869 249.112C70.5869 227.333 88.8693 207.398 118.93 192.864C148.938 178.356 190.447 169.362 236.337 169.362C282.227 169.362 323.736 178.356 353.744 192.864C383.805 207.398 402.087 227.333 402.087 249.112Z" stroke="#181735" stroke-width="1.5"/>
<circle cx="355.981" cy="303.804" r="7.5" fill="#181735"/>
<circle cx="116.692" cy="194.419" r="7.5" fill="#181735"/>
<path d="M236.337 83.3616C258.116 83.3616 278.05 101.644 292.584 131.704C307.092 161.713 316.087 203.222 316.087 249.112C316.087 295.002 307.092 336.511 292.584 366.519C278.05 396.579 258.116 414.862 236.337 414.862C214.558 414.862 194.624 396.579 180.09 366.519C165.581 336.511 156.587 295.002 156.587 249.112C156.587 203.222 165.581 161.713 180.09 131.704C194.624 101.644 214.558 83.3616 236.337 83.3616Z" stroke="#181735" stroke-width="1.5"/>
<circle cx="312.55" cy="201.947" r="7.5" fill="#181735"/>
<circle cx="155.837" cy="256.612" r="7.5" fill="#181735"/>
</svg>
